<mxfile host="app.diagrams.net" modified="2023-08-24T23:12:35.895Z" agent="Mozilla/5.0 (Windows NT 10.0; Win64; x64) AppleWebKit/537.36 (KHTML, like Gecko) Chrome/116.0.0.0 Safari/537.36" version="21.6.8" etag="CFhYojnLzc08yGsvEgQp" type="github">
  <diagram name="PÃ¡gina-1" id="SwVdv-AcaEPik-YYVE41">
    <mxGraphModel>
      <root>
        <mxCell id="0" />
        <mxCell id="1" parent="0" />
      </root>
    </mxGraphModel>
  </diagram>
</mxfile>
